<svg width="26" height="32" viewBox="0 0 26 32" fill="none" xmlns="http://www.w3.org/2000/svg">
<path d="M21.7373 16.9109C21.7225 14.2879 22.8718 12.3111 25.1928 10.8534C23.8947 8.93042 21.9308 7.87277 19.3419 7.66893C16.8907 7.46894 14.2089 9.1458 13.2269 9.1458C12.1891 9.1458 9.81602 7.73816 7.94878 7.73816C4.09528 7.7997 0 10.915 0 17.2532C0 19.1262 0.331044 21.0607 0.993133 23.0529C1.8784 25.6759 5.06981 32.1026 8.39886 31.9988C10.1396 31.9564 11.3708 30.7219 13.6361 30.7219C15.8343 30.7219 16.9725 31.9988 18.9142 31.9988C22.273 31.9488 25.1594 26.1067 26 23.476C21.4956 21.2799 21.7373 17.0455 21.7373 16.9109ZM17.828 5.18057C19.7139 2.86527 19.5428 0.757663 19.487 0C17.8206 0.0999961 15.8938 1.17303 14.7966 2.49221C13.5877 3.90754 12.8773 5.65747 13.0298 7.63047C14.83 7.77277 16.4741 6.81512 17.828 5.18057Z" fill="#4FAD5B"/>
</svg>
