<svg width="28" height="33" viewBox="0 0 28 33" fill="none" xmlns="http://www.w3.org/2000/svg">
<path d="M3.5 20.9389C3.5 21.403 3.31563 21.8482 2.98744 22.1763C2.65925 22.5045 2.21413 22.6889 1.75 22.6889C1.28587 22.6889 0.840752 22.5045 0.512563 22.1763C0.184375 21.8482 0 21.403 0 20.9389V13.0639C0 12.5998 0.184375 12.1547 0.512563 11.8265C0.840752 11.4983 1.28587 11.3139 1.75 11.3139C2.21413 11.3139 2.65925 11.4983 2.98744 11.8265C3.31563 12.1547 3.5 12.5998 3.5 13.0639V20.9389ZM28 20.9389C28 21.403 27.8156 21.8482 27.4874 22.1763C27.1593 22.5045 26.7141 22.6889 26.25 22.6889C25.7859 22.6889 25.3407 22.5045 25.0126 22.1763C24.6844 21.8482 24.5 21.403 24.5 20.9389V13.0639C24.5 12.5998 24.6844 12.1547 25.0126 11.8265C25.3407 11.4983 25.7859 11.3139 26.25 11.3139C26.7141 11.3139 27.1593 11.4983 27.4874 11.8265C27.8156 12.1547 28 12.5998 28 13.0639V20.9389ZM12.25 30.563C12.25 31.0272 12.0656 31.4723 11.7374 31.8005C11.4092 32.1287 10.9641 32.313 10.5 32.313C10.0359 32.313 9.59075 32.1287 9.26256 31.8005C8.93437 31.4723 8.75 31.0272 8.75 30.563V22.688C8.75 22.2239 8.93437 21.7788 9.26256 21.4506C9.59075 21.1224 10.0359 20.938 10.5 20.938C10.9641 20.938 11.4092 21.1224 11.7374 21.4506C12.0656 21.7788 12.25 22.2239 12.25 22.688V30.563ZM19.25 30.563C19.25 31.0272 19.0656 31.4723 18.7374 31.8005C18.4092 32.1287 17.9641 32.313 17.5 32.313C17.0359 32.313 16.5908 32.1287 16.2626 31.8005C15.9344 31.4723 15.75 31.0272 15.75 30.563V22.688C15.75 22.2239 15.9344 21.7788 16.2626 21.4506C16.5908 21.1224 17.0359 20.938 17.5 20.938C17.9641 20.938 18.4092 21.1224 18.7374 21.4506C19.0656 21.7788 19.25 22.2239 19.25 22.688V30.563Z" fill="#4FAD5B"/>
<path d="M5.25 11.3128V24.437C5.25 24.9011 5.43437 25.3462 5.76256 25.6744C6.09075 26.0026 6.53587 26.187 7 26.187H21C21.4641 26.187 21.9093 26.0026 22.2374 25.6744C22.5656 25.3462 22.75 24.9011 22.75 24.437V11.3128H5.25ZM14 2.56195C8.75 2.56195 5.55187 5.75133 5.25 9.56195H22.75C22.4473 5.75133 19.25 2.56195 14 2.56195ZM10.5 7.4602C10.2679 7.4602 10.0454 7.36801 9.88128 7.20392C9.71719 7.03982 9.625 6.81726 9.625 6.5852C9.625 6.35314 9.71719 6.13058 9.88128 5.96648C10.0454 5.80239 10.2679 5.7102 10.5 5.7102C10.7321 5.7102 10.9546 5.80239 11.1187 5.96648C11.2828 6.13058 11.375 6.35314 11.375 6.5852C11.375 6.81726 11.2828 7.03982 11.1187 7.20392C10.9546 7.36801 10.7321 7.4602 10.5 7.4602ZM17.5 7.4602C17.2679 7.4602 17.0454 7.36801 16.8813 7.20392C16.7172 7.03982 16.625 6.81726 16.625 6.5852C16.625 6.35314 16.7172 6.13058 16.8813 5.96648C17.0454 5.80239 17.2679 5.7102 17.5 5.7102C17.7321 5.7102 17.9546 5.80239 18.1187 5.96648C18.2828 6.13058 18.375 6.35314 18.375 6.5852C18.375 6.81726 18.2828 7.03982 18.1187 7.20392C17.9546 7.36801 17.7321 7.4602 17.5 7.4602Z" fill="#4FAD5B"/>
<path d="M19.25 1.68695L17.7922 3.87358M8.75 1.68695L9.91638 3.5087" stroke="#4FAD5B" stroke-width="2" stroke-linecap="round"/>
</svg>
