<svg width="55" height="50" viewBox="0 0 55 50" fill="none" xmlns="http://www.w3.org/2000/svg">
<rect width="55" height="50" rx="2" fill="#4FAD5B"/>
<path d="M35.6353 18.2508C35.4899 18.1288 35.3129 18.0474 35.1234 18.0153C34.934 17.9833 34.739 18.0017 34.5595 18.0687L20.6727 23.3512C20.4596 23.4311 20.2792 23.5761 20.1586 23.764C20.038 23.952 19.9838 24.1729 20.0042 24.3934C20.0246 24.6138 20.1184 24.8218 20.2716 24.9861C20.4247 25.1503 20.6289 25.2619 20.8533 25.3039L24.5017 26.0107V30.397C24.502 30.598 24.5635 30.7944 24.6786 30.9616C24.7937 31.1288 24.9572 31.2594 25.1487 31.3369C25.2778 31.3879 25.4155 31.415 25.5549 31.4171C25.6933 31.4179 25.8305 31.3919 25.9584 31.3406C26.0863 31.2893 26.2023 31.2137 26.2996 31.1183L28.3533 29.1292L31.4226 31.7449C31.6127 31.9101 31.8593 32.0009 32.1147 32C32.2247 32.0009 32.3341 31.9836 32.4381 31.949C32.6118 31.8955 32.7679 31.7986 32.8908 31.6682C33.0136 31.5377 33.0987 31.3782 33.1377 31.2058L35.9738 19.249C36.0162 19.0686 36.007 18.8803 35.9474 18.7045C35.8878 18.5286 35.7799 18.3718 35.6353 18.2508ZM20.9134 24.313C20.9082 24.2823 20.9144 24.2507 20.9309 24.224C20.9474 24.1973 20.9733 24.1772 21.0037 24.1673L32.6262 19.7445L24.8478 25.1873L21.0338 24.4441C21.0006 24.4405 20.9699 24.4251 20.9476 24.4009C20.9254 24.3767 20.9132 24.3454 20.9134 24.313ZM25.6602 30.499C25.6394 30.5202 25.6121 30.5344 25.5824 30.5397C25.5526 30.5449 25.5219 30.5409 25.4947 30.5281C25.4683 30.517 25.4457 30.4987 25.4297 30.4754C25.4137 30.4522 25.4049 30.4249 25.4045 30.397V26.6154L27.6688 28.5536L25.6602 30.499ZM32.2651 31.009C32.26 31.0343 32.248 31.0578 32.2304 31.0771C32.2129 31.0965 32.1903 31.111 32.1651 31.1191C32.1398 31.1273 32.1128 31.1288 32.0868 31.1235C32.0608 31.1183 32.0366 31.1064 32.0169 31.0892L25.6753 25.6828L35.0786 19.1106L32.2651 31.009Z" fill="white"/>
</svg>
